<svg width="65" height="65" viewBox="0 0 65 65" fill="none" xmlns="http://www.w3.org/2000/svg">
<g clip-path="url(#clip0_104_2)">
<path d="M65 32.5C65 14.5536 50.4464 0 32.5 0C14.5536 0 0 14.5536 0 32.5C0 50.4464 14.5536 65 32.5 65C50.4464 65 65 50.4464 65 32.5Z" fill="#25B7D3"/>
<path d="M57.9525 32.3821C57.9525 33.4563 57.1927 34.3209 56.2495 34.3209H47.4597C46.5296 34.3209 45.7568 33.4563 45.7568 32.3821C45.7568 31.308 46.5165 30.4434 47.4597 30.4434H56.2495C57.1927 30.4303 57.9525 31.308 57.9525 32.3821Z" fill="#E8DEB3"/>
<path d="M54.1667 32.0022C54.1667 30.5874 46.1105 21.8762 43.2286 21.8762H14.8418C11.9468 21.8762 10.4797 23.5268 10.4797 26.4218V37.766C10.4797 40.661 11.9468 42.1281 14.8418 42.1281H43.2286C46.1236 42.115 54.1667 33.4038 54.1667 32.0022ZM44.1062 32.369C44.1062 31.2424 45.0232 30.3385 46.1367 30.3385C47.2632 30.3385 48.1671 31.2555 48.1671 32.369C48.1671 33.4955 47.2501 34.3994 46.1367 34.3994C45.0101 34.4125 44.1062 33.4955 44.1062 32.369Z" fill="#ABD9DF"/>
<path d="M35.2902 27.9675C35.2902 28.8321 34.3077 29.4478 34.2553 29.3692C33.5218 28.5308 32.2773 27.8889 31.0066 27.8889C29.7229 27.8889 28.9369 28.4653 28.9369 29.3299C28.9369 30.3255 29.998 30.6006 31.4651 30.928C33.2336 31.3079 35.5522 32.0284 35.5522 34.5304C35.5522 36.4692 34.2029 37.8053 31.9629 38.159V38.9057C31.9629 39.7833 31.6223 40.2156 30.8494 40.2156H30.7577C29.9587 40.2156 29.6705 39.8095 29.6705 38.9057V38.1983C27.3519 37.9494 26.0288 36.8883 26.0288 35.8142C26.0288 34.9889 26.9458 34.3994 27.0244 34.4649C27.758 35.3426 29.1727 36.0762 30.6661 36.0762C32.0284 36.0762 32.8144 35.4998 32.8144 34.6352C32.8144 33.5742 31.6223 33.286 30.2207 32.9716C28.5308 32.6048 26.3039 31.9367 26.3039 29.4085C26.3039 27.5615 27.6139 26.2384 29.6836 25.8585V25.1511C29.6836 24.2735 30.0111 23.8412 30.7839 23.8412H30.9018C31.6878 23.8412 31.9891 24.2473 31.9891 25.1511V25.8061C34.1243 26.0288 35.2902 26.9851 35.2902 27.9675Z" fill="#226E72"/>
<path d="M57.9525 32.7751C57.9525 33.7183 57.1927 34.478 56.2495 34.478H47.4204C46.4772 34.478 45.7175 33.7183 45.7175 32.7751C45.7175 31.8319 46.4772 31.0721 47.4204 31.0721H56.2495C57.1927 31.0721 57.9525 31.8319 57.9525 32.7751Z" fill="#F7F5ED"/>
</g>
<defs>
<clipPath id="clip0_104_2">
<rect width="65" height="65" fill="white"/>
</clipPath>
</defs>
</svg>
